PathFileType	4	(X/Y/Z)	D:\telocate\uwb06-Unnamed.trc
DataRate	CameraRate	NumFrames	NumMarkers	Units	OrigDataRate	OrigDataStartFrame	OrigNumFrames
100.00	100.00	     209	0	mm	100.00	1	     16512
Frame#	Time	
		

1	0.000				-1202.09607	-701.02368	1227.70764	
2	0.010				-1202.19177	-700.33875	1227.47925	
3	0.020				-1202.04224	-699.65576	1227.53796	
4	0.030				-1201.88501	-698.61005	1227.49805	
5	0.040				-1201.68408	-697.80408	1227.49280	
6	0.050				-1200.62305	-695.52991	1226.97070	
7	0.060				-1200.09680	-694.13947	1226.76355	
8	0.070				-1199.89905	-693.19244	1226.54871	
9	0.080				-1199.53955	-692.10034	1226.32117	
10	0.090				-1199.49109	-691.18176	1226.41089	
11	0.100				-1198.84216	-688.80310	1226.49841	
12	0.110				-1198.45947	-687.67255	1226.61975	
13	0.120				-1200.11841	-686.61426	1226.49841	
14	0.130				-1199.64294	-685.58038	1226.56323	
15	0.140				-1199.55896	-684.65234	1226.62537	
16	0.150				-1199.59448	-683.75220	1226.53967	
17	0.160				-1196.85559	-681.58752	1226.50305	
18	0.170				-1196.63489	-680.93610	1226.53052	
19	0.180				-1196.23169	-679.91687	1226.33606	
20	0.190				-1196.47217	-679.35364	1226.22375	
21	0.200				-1199.04016	-678.85541	1225.94934	
22	0.210				-1198.98999	-678.49225	1225.97571	
23	0.220				-1198.92114	-678.22595	1226.00183	
24	0.230				-1196.98486	-677.86792	1226.06775	
25	0.240				-1197.58435	-677.93268	1225.99390	
26	0.250				-1198.02039	-677.87402	1225.86853	
27	0.260				-1198.54565	-677.82941	1225.76843	
28	0.270				-1198.86353	-677.81726	1225.73291	
29	0.280				-1199.15576	-678.02173	1225.74292	
30	0.290				-1199.32129	-678.06140	1225.74976	
31	0.300				-1199.62378	-678.14294	1225.67468	
32	0.310				-1200.07800	-677.90948	1225.66565	
33	0.320				-1200.29626	-678.09192	1225.79346	
34	0.330				-1200.30383	-678.13007	1225.74890	
35	0.340				-1200.36182	-678.23700	1225.76794	
36	0.350				-1201.09290	-678.05359	1225.66614	
37	0.360				-1201.31226	-677.93549	1225.65723	
38	0.370				-1201.89734	-677.98053	1225.57654	
39	0.380				-1202.10217	-678.10101	1225.61426	
40	0.390				-1202.87842	-678.07001	1225.51233	
41	0.400				-1202.99121	-678.10101	1225.51294	
42	0.410				-1203.06970	-678.01697	1225.47754	
43	0.420				-1203.10852	-677.93951	1225.48486	
44	0.430				-1203.25903	-677.94489	1225.41504	
45	0.440				-1203.56775	-677.71442	1225.39612	
46	0.450				-1203.96729	-677.69379	1225.42578	
47	0.460				-1204.08557	-677.64673	1225.39087	
48	0.470				-1204.41016	-677.66345	1225.44873	
49	0.480				-1204.78845	-677.74976	1225.39038	
50	0.490				-1205.69177	-678.17035	1225.79626	
51	0.500				-1208.60022	-678.64899	1225.71948	
52	0.510				-1209.09192	-679.07764	1225.63281	
53	0.520				-1209.57593	-679.64301	1225.62781	
54	0.530				-1209.63086	-680.19104	1225.69727	
55	0.540				-1209.79895	-680.71661	1225.56677	
56	0.550				-1209.72083	-681.34644	1225.49878	
57	0.560				-1209.39246	-681.48120	1225.49829	
58	0.570				-1208.94910	-681.16541	1225.75305	
59	0.580				-1205.31665	-680.71454	1225.99475	
60	0.590				-1204.29102	-679.56433	1225.58264	
61	0.600				-1203.43921	-678.95825	1225.43457	
62	0.610				-1202.72913	-678.76654	1225.56030	
63	0.620				-1201.92944	-678.67743	1225.68884	
64	0.630				-1200.91492	-679.07141	1225.70752	
65	0.640				-1200.14331	-679.43848	1225.92969	
66	0.650				-1199.73376	-680.03534	1225.93604	
67	0.660				-1199.31567	-680.87567	1226.31934	
68	0.670				-1198.85095	-682.24042	1226.37390	
69	0.680				-1198.54639	-684.23499	1226.48889	
70	0.690				-1199.36609	-685.32861	1226.51221	
71	0.700				-1197.73340	-686.40680	1226.43811	
72	0.710				-1195.89441	-688.00610	1226.68433	
73	0.720				-1194.27429	-689.09790	1226.88049	
74	0.730				-1192.94470	-691.86151	1226.99951	
75	0.740				-1191.05420	-693.63312	1227.41003	
76	0.750				-1190.58057	-695.85394	1227.67725	
77	0.760				-1185.44495	-698.91669	1228.30347	
78	0.770				-1183.38599	-701.25006	1227.91235	
79	0.780				-1182.02734	-704.88330	1228.07825	
80	0.790				-1180.05884	-707.19635	1228.25415	
81	0.800				-1178.30945	-710.65686	1228.14172	
82	0.810				-1177.45288	-714.42609	1228.55945	
83	0.820				-1176.20447	-717.91638	1228.90967	
84	0.830				-1175.08032	-720.73615	1229.04626	
85	0.840				-1173.96558	-724.45605	1229.40247	
86	0.850				-1172.63354	-727.83514	1229.76843	
87	0.860				-1171.21765	-731.90265	1229.78015	
88	0.870				-1169.77710	-734.73932	1230.17273	
89	0.880				-1168.97534	-738.19781	1229.75684	
90	0.890				-1167.02527	-741.75854	1230.08899	
91	0.900				-1166.36572	-745.24567	1229.96924	
92	0.910				-1165.33582	-748.03784	1230.20520	
93	0.920				-1164.89185	-751.57581	1230.33325	
94	0.930				-1164.01599	-754.50751	1230.18408	
95	0.940				-1163.15918	-758.15759	1230.46851	
96	0.950				-1162.58997	-761.47180	1230.45337	
97	0.960				-1162.07214	-764.32581	1230.50134	
98	0.970				-1161.64270	-767.15619	1230.22314	
99	0.980				-1161.07776	-770.63904	1230.58252	
100	0.990				-1160.38489	-773.16376	1230.25220	
101	1.000				-1158.02466	-776.03467	1230.51721	
102	1.010				-1157.72974	-779.16345	1230.82678	
103	1.020				-1156.93640	-782.07489	1230.28796	
104	1.030				-1156.60120	-785.40149	1230.51379	
105	1.040				-1155.91992	-788.21002	1230.51379	
106	1.050				-1155.65686	-791.78601	1230.75110	
107	1.060				-1155.26721	-793.78369	1230.35327	
108	1.070				-1155.19226	-796.13049	1230.28113	
109	1.080				-1154.38367	-799.05817	1230.13611	
110	1.090				-1153.90869	-801.68597	1230.39319	
111	1.100				-1154.08130	-804.81964	1230.19751	
112	1.110				-1153.79102	-807.60358	1230.43469	
113	1.120				-1153.20251	-811.33142	1230.97229	
114	1.130				-1152.94470	-814.30878	1230.47803	
115	1.140				-1154.92871	-818.96973	1230.78040	
116	1.150				-1154.06738	-822.72723	1230.42236	
117	1.160				-1153.85449	-827.49963	1230.37915	
118	1.170				-1153.98523	-832.33698	1230.67798	
119	1.180				-1153.21008	-836.77020	1229.99854	
120	1.190				-1153.87915	-842.32684	1229.81042	
121	1.200				-1153.51990	-847.22510	1229.88208	
122	1.210				-1153.34204	-854.09167	1229.73560	
123	1.220				-1153.26843	-859.06226	1229.75671	
124	1.230				-1153.06689	-865.03229	1229.39172	
125	1.240				-1153.26367	-871.51111	1229.63940	
126	1.250				-1153.58496	-877.75745	1228.76331	
127	1.260				-1153.92114	-884.53442	1228.50928	
128	1.270				-1154.33215	-891.49219	1228.01404	
129	1.280				-1155.27808	-898.35181	1227.69421	
130	1.290				-1155.80469	-906.15662	1227.44568	
131	1.300				-1156.33679	-913.00946	1227.31763	
132	1.310				-1157.19678	-920.66846	1226.35925	
133	1.320				-1158.39209	-927.57697	1226.35461	
134	1.330				-1156.45740	-935.19073	1225.73047	
135	1.340				-1157.68567	-942.27380	1225.80762	
136	1.350				-1159.04993	-949.45868	1225.73169	
137	1.360				-1161.86084	-957.08771	1225.06116	
138	1.370				-1162.94226	-963.60974	1224.75195	
139	1.380				-1161.12634	-970.99335	1224.56946	
140	1.390				-1162.11084	-978.09192	1224.63171	
141	1.400				-1163.03564	-985.67590	1224.38721	
142	1.410				-1164.04419	-993.01276	1223.97498	
143	1.420				-1164.45593	-999.64990	1223.91882	
144	1.430				-1165.17322	-1008.17743	1223.61816	
145	1.440				-1166.20874	-1015.59308	1223.71606	
146	1.450				-1166.25562	-1023.28473	1223.44482	
147	1.460				-1166.65625	-1030.40723	1223.10107	
148	1.470				-1167.27832	-1038.29895	1223.00732	
149	1.480				-1167.71155	-1046.30725	1223.15442	
150	1.490				-1167.82263	-1053.69653	1222.24292	
151	1.500				-1168.23608	-1062.60095	1222.36804	
152	1.510				-1168.80237	-1070.15100	1222.32104	
153	1.520				-1169.10608	-1078.70972	1222.02136	
154	1.530				-1171.51685	-1086.95435	1221.44910	
155	1.540				-1169.74988	-1094.98535	1220.85071	
156	1.550				-1172.41736	-1103.91992	1221.17542	
157	1.560				-1170.21692	-1111.87036	1221.01770	
158	1.570				-1170.55664	-1119.94666	1220.71704	
159	1.580				-1170.24438	-1129.53564	1220.62634	
160	1.590				-1170.43726	-1137.33606	1220.09875	
161	1.600				-1171.44849	-1145.57520	1219.50085	
162	1.610				-1171.27722	-1153.63428	1219.83020	
163	1.620				-1170.78674	-1161.85864	1219.53687	
164	1.630				-1171.15405	-1169.88965	1218.98584	
165	1.640				-1170.34216	-1178.05750	1218.31897	
166	1.650				-1169.52747	-1185.64917	1218.15100	
167	1.660				-1168.82471	-1194.53186	1217.75586	
168	1.670				-1168.52649	-1201.33838	1217.62939	
169	1.680				-1167.61902	-1210.31067	1217.15015	
170	1.690				-1166.56836	-1217.27063	1216.96912	
171	1.700				-1165.92419	-1225.09656	1216.60010	
172	1.710				-1165.25220	-1232.47021	1216.50220	
173	1.720				-1164.17822	-1239.58960	1216.32434	
174	1.730				-1163.18701	-1248.24731	1216.51880	
175	1.740				-1162.51746	-1254.06409	1216.06946	
176	1.750				-1162.31714	-1261.69165	1216.42188	
177	1.760				-1161.37842	-1268.12915	1216.58057	
178	1.770				-1158.04785	-1273.28662	1216.45044	
179	1.780				-1156.87219	-1279.53784	1216.83936	
180	1.790				-1155.71411	-1286.03723	1217.36865	
181	1.800				-1153.67737	-1290.81738	1217.14807	
182	1.810				-1152.47668	-1296.47961	1217.47034	
183	1.820				-1151.17932	-1301.79822	1217.24097	
184	1.830				-1150.81738	-1307.28748	1217.42358	
185	1.840				-1149.03650	-1312.82275	1218.08960	
186	1.850				-1146.57166	-1316.85095	1217.34424	
187	1.860				-1144.71729	-1321.77722	1217.42371	
188	1.870				-1143.65552	-1326.54199	1217.80420	
189	1.880				-1142.47253	-1330.18982	1217.90308	
190	1.890				-1137.92029	-1334.98145	1218.24341	
191	1.900				-1135.85889	-1339.62903	1219.03418	
192	1.910				-1133.77612	-1342.47021	1219.26428	
193	1.920				-1131.42310	-1346.73694	1219.49597	
194	1.930				-1131.04089	-1351.16260	1219.38379	
195	1.940				-1130.64758	-1353.58875	1218.99573	
196	1.950				-1129.57007	-1357.67920	1219.58411	
197	1.960				-1127.41553	-1359.41492	1219.57959	
198	1.970				-1125.21252	-1363.76001	1220.64636	
199	1.980				-1123.17029	-1365.66028	1220.28699	
200	1.990				-1120.81079	-1368.42651	1220.78748	
201	2.000				-1118.28259	-1370.96289	1221.54089	
202	2.010				-1116.25964	-1374.40088	1221.47058	
203	2.020				-1113.76941	-1377.02991	1222.32813	
204	2.030				-1112.59387	-1379.38135	1222.65527	
205	2.040				-1110.87988	-1382.77917	1223.14917	
206	2.050				-1109.07825	-1384.83643	1223.33203	
207	2.060				-1103.82825	-1388.21960	1224.76978	
208	2.070				-1101.08704	-1389.65967	1224.89319	
209	2.080				-1098.47388	-1392.07434	1225.40137	
